<svg xmlns="http://www.w3.org/2000/svg" xmlns:xlink="http://www.w3.org/1999/xlink" viewBox="0,0,256,256" width="48px" height="48px" fill-rule="nonzero"><g fill="none" fill-rule="nonzero" stroke="none" stroke-width="1" stroke-linecap="butt" stroke-linejoin="miter" stroke-miterlimit="10" stroke-dasharray="" stroke-dashoffset="0" font-family="none" font-weight="none" font-size="none" text-anchor="none" style="mix-blend-mode: normal"><g transform="scale(5.33333,5.33333)"><path d="M27.5,27.5c-10.9,11 -19.2,8.9 -24.1,6.4c0,0 0.9,3.4 4.4,6.8c3.6,3.5 13.4,9.6 28,-5c14.6,-14.6 8.5,-24.4 5,-28c-3.8,-3.7 -7,-4.3 -7,-4.3c0,0 10.8,7 -6.3,24.1z" fill="#000000"></path><path d="M35.7,35.7c16.2,-16.2 1.2,-30.3 1.5,-25.8c0.1,2.4 -0.6,5.6 -3.1,9.6c-1.5,2.3 14.1,0.9 1.6,16.2z" fill="#000000"></path><path d="M14.3,42.8c-0.3,0 -0.5,-0.2 -0.5,-0.5c0,-0.3 0.2,-0.5 0.5,-0.5c2.7,-0.1 5.4,-0.8 7.8,-2.1c0.2,-0.1 0.2,-0.2 0.3,-0.7c0,-0.1 0,-0.2 0,-0.3c0.2,-1.6 0.9,-2.6 1.9,-2.8c0.3,-0.1 0.5,0.1 0.6,0.4c0.1,0.3 -0.1,0.5 -0.3,0.6c-0.5,0.1 -0.8,0.6 -0.7,1c0,0.2 0.2,0.4 0.4,0.4c0.1,0 0.3,0.1 0.4,0c0.3,-0.2 0.3,-0.7 0.3,-1.3c0.1,-1.6 0.8,-3.3 2.3,-3.6c0.3,-0.1 0.5,0.1 0.6,0.4c0.1,0.3 -0.1,0.5 -0.4,0.6c-0.2,0 -0.4,0.2 -0.5,0.4c-0.1,0.2 -0.1,0.4 0,0.6c0.1,0.2 0.3,0.3 0.5,0.3c0.2,0 0.3,0 0.5,-0.1c0.1,-1.1 0.4,-2.2 0.9,-3.1c0.3,-0.5 0.6,-0.9 0.9,-1.1c0.2,-0.2 0.5,-0.3 0.8,-0.3c0.3,0 0.5,0.2 0.5,0.5c0,0.3 -0.2,0.5 -0.4,0.5c-0.1,0 -0.2,0 -0.3,0.1l-0.1,0.1c-0.1,0.2 -0.1,0.4 0,0.5c0.1,0.2 0.3,0.3 0.4,0.3c0.2,0.1 0.5,0 0.7,-0.1c0.4,-0.3 0.6,-0.8 0.6,-1.4c0,-0.2 0,-0.3 0,-0.5c0,-0.2 0,-0.4 0,-0.7c0,-1.2 0.8,-2.3 1.8,-2.7c0.2,-0.1 0.5,0 0.6,0.2c0.1,0.2 0,0.5 -0.2,0.7c-0.5,0.3 -0.9,0.9 -0.6,1.3c0.1,0.1 0.3,0.2 0.4,0.2c0.3,0 0.6,-0.1 0.7,-0.2c0.3,-0.3 0.5,-0.9 0.5,-1.6c0,-0.2 0,-0.4 0,-0.6c0,-0.5 0,-1.1 0.1,-1.6c0.1,-0.3 0.2,-0.7 0.4,-1c0.3,-0.5 0.7,-0.8 1.3,-0.9c0.3,0 0.5,0.1 0.6,0.4c0,0.3 -0.1,0.5 -0.4,0.6c-0.2,0 -0.5,0.2 -0.6,0.4c0,0.1 -0.1,0.2 -0.1,0.2c0,0.1 0.1,0.3 0.2,0.4c0,0 0.2,0.1 0.3,0.1c0.2,0 0.4,-0.3 0.5,-0.6c0.3,-0.7 0.3,-1.4 0.1,-2.1l-0.1,-0.2c-0.1,-0.2 -0.2,-0.4 -0.2,-0.6c-0.1,-0.6 0.2,-1.1 0.5,-1.6c0.2,-0.4 0.5,-0.6 0.9,-0.8c0.2,-0.1 0.5,0 0.6,0.2c0.1,0.2 0.1,0.5 -0.1,0.6c-0.2,0.2 -0.4,0.3 -0.5,0.5v0.1c0,0.2 0,0.4 0.2,0.5c0.2,0.3 0.6,0.3 0.8,0c0,0 0.1,-0.2 0,-0.4c-0.1,-0.2 0,-0.5 0.2,-0.7c0.2,-0.1 0.5,0 0.7,0.2c0.2,0.4 0.2,0.9 -0.1,1.3c-0.4,0.7 -1.3,0.9 -1.9,0.6c0.3,0.9 0.2,1.8 -0.1,2.7c-0.3,0.7 -0.7,1.1 -1.2,1.2c-0.3,0.1 -0.7,0 -1,-0.2c0,0.2 0,0.4 0,0.6c0,0.2 0,0.4 0,0.7c0,1 -0.3,1.8 -0.8,2.4c-0.4,0.4 -1,0.6 -1.6,0.5c-0.4,0 -0.7,-0.2 -0.9,-0.5c0,0.1 0,0.2 0,0.4c0,0.2 0,0.4 0,0.6c0,0.9 -0.4,1.8 -1.1,2.2c-0.4,0.3 -1,0.4 -1.5,0.3c-0.4,-0.1 -0.8,-0.3 -1,-0.6c-0.3,0.7 -0.5,1.5 -0.5,2.3c0,0.1 0,0.2 -0.1,0.3c-0.3,0.4 -0.9,0.6 -1.4,0.5c-0.6,-0.1 -1,-0.4 -1.3,-0.8v0c-0.1,0.3 -0.2,0.7 -0.2,1c0,0.8 -0.1,1.6 -0.7,2.1c-0.4,0.3 -0.9,0.3 -1.4,0.2c-0.2,-0.1 -0.4,-0.2 -0.6,-0.4v0.2c-0.1,0.5 -0.1,1.1 -0.8,1.5c-2.3,1.5 -5.2,2.3 -8.1,2.3c0.1,0 0,0 0,0z" fill="#ffd600"></path><path d="M3.4,33.9c0,0 0.9,3.4 4.4,6.8c3.6,3.5 13.4,9.6 28,-5c-11.7,11.6 -27.1,3.5 -32.4,-1.8z" fill="#000000"></path><path d="M5.1,35.6c2.5,1.3 5,2.6 9,1.4c-3.1,-3.1 -0.5,-10.8 5.8,-17.1c6.3,-6.3 14,-8.9 17.1,-5.8c1.2,-4 -0.2,-6.4 -1.4,-8.9c0.4,0.2 -7.1,-6 -21.1,8c-14,13.9 -9.2,22.7 -9.4,22.4z" fill="#000000"></path><path d="M37,14.1c1.2,-4 -0.2,-6.4 -1.4,-8.9c0.3,0.2 -7.1,-6 -21.1,8c-4.2,4.2 -6.7,8 -8.2,11.1c8.7,-8.8 22.7,-18.3 30.7,-10.2z" fill="#000000"></path><path d="M12.8,12.7c-8.8,8.8 -12.3,19.3 -7.9,23.7c4.4,4.4 14.9,0.8 23.7,-7.9c8.8,-8.7 12.2,-19.3 7.8,-23.6c-4.3,-4.4 -14.9,-0.9 -23.6,7.8zM35.4,14.4c-1.4,4.2 -4.4,8.7 -8.4,12.7c-4,4 -8.5,7 -12.7,8.4c-3.6,1.2 -6.6,1 -8.1,-0.5c-1.5,-1.5 -1.7,-4.5 -0.5,-8.1c1.4,-4.2 4.4,-8.7 8.4,-12.7c4,-4 8.5,-7 12.7,-8.4c3.6,-1.2 6.6,-1 8.1,0.5c1.6,1.5 1.8,4.5 0.5,8.1zM31.7,36.9c-0.2,0 -0.3,-0.1 -0.4,-0.2c-0.2,-0.2 -0.1,-0.5 0.1,-0.7c0.8,-0.6 1.2,-1.8 1.1,-3.2c0,-0.5 -0.1,-1 -0.2,-1.6c-0.1,-0.8 -0.3,-1.6 -0.3,-2.5c0,-1.5 0.6,-2.9 1.6,-4.1c0.2,-0.2 0.5,-0.2 0.7,-0.1c0.2,0.2 0.2,0.5 0.1,0.7c-0.8,0.9 -1.3,2.2 -1.3,3.4c0,0.8 0.1,1.5 0.3,2.3c0.1,0.5 0.2,1.1 0.2,1.7c0.2,1.8 -0.4,3.3 -1.5,4.1c-0.2,0.2 -0.3,0.2 -0.4,0.2z" fill="#ffd600"></path><path d="M8.5,32c-0.5,0 -0.9,-0.2 -1.2,-0.6c-0.2,-0.4 -0.3,-0.9 -0.1,-1.3c0.2,-0.5 0.5,-0.8 0.9,-0.9c0.3,-0.1 0.5,0.1 0.6,0.3c0.1,0.3 -0.1,0.5 -0.3,0.6c-0.1,0 -0.2,0.1 -0.3,0.3c-0.1,0.1 0,0.3 0,0.4c0.1,0.2 0.6,0.2 0.7,0c0.2,-0.1 0.2,-0.4 0.2,-0.7c0,-0.4 -0.1,-0.8 -0.2,-1.2c-0.1,-0.4 -0.2,-0.9 -0.3,-1.4c-0.1,-1 0.2,-2.2 1.2,-2.8c0.2,-0.1 0.5,-0.1 0.6,0.1c-0.2,-1.7 0.6,-3.4 1.9,-4.4c0.1,-0.1 0.2,-0.2 0.3,-0.2c0.2,-0.1 0.5,0 0.7,0.2c0.1,0.2 0.1,0.5 -0.2,0.7c-0.1,0 -0.1,0.1 -0.2,0.1c-0.3,0.2 -0.6,0.6 -0.6,1c0,0.2 0.2,0.4 0.3,0.4c0.1,0 0.2,0.1 0.3,0c0.1,-0.1 0.2,-0.4 0.2,-0.5c0.1,-0.4 0.1,-0.7 0.2,-1.1c0.1,-0.6 0.2,-1.2 0.4,-1.8c0.3,-0.7 0.8,-1.5 1.6,-1.8c0.4,-0.2 0.8,-0.3 1.2,-0.2c0.1,0 0.2,0.1 0.2,0.1c0.1,-0.4 0.2,-0.7 0.3,-1.1c0.5,-1.2 1.2,-2 2.2,-2.3c0.3,-0.1 0.7,-0.1 0.9,0.1c0.1,-0.5 0.3,-1.2 0.7,-1.7c0.5,-0.6 1.4,-1 2.2,-0.6c0.2,0.1 0.3,0.4 0.2,0.6c-0.1,0.2 -0.4,0.4 -0.6,0.3c-0.1,0 -0.3,0 -0.4,0c-0.1,0.1 -0.2,0.2 -0.3,0.3c0,0.1 0,0.3 0.1,0.4c0.1,0.1 0.2,0.2 0.3,0.3c0.1,0 0.3,0 0.4,-0.1c0.1,-0.1 0.2,-0.2 0.2,-0.3c0.1,-0.3 0.3,-0.4 0.6,-0.4c0.3,0.1 0.4,0.3 0.4,0.6c-0.1,0.4 -0.3,0.7 -0.7,1c-0.4,0.2 -0.8,0.3 -1.2,0.2c-0.4,-0.1 -0.7,-0.4 -0.9,-0.7c0.1,0.1 0,0.3 0,0.5c-0.1,0.6 -0.3,1.3 -0.7,1.9c-0.1,0.1 -0.2,0.3 -0.5,0.4c-0.2,0.1 -0.4,0.1 -0.7,0c-0.4,-0.1 -0.7,-0.4 -0.9,-0.8c-0.1,0.2 -0.2,0.4 -0.3,0.6c-0.2,0.4 -0.3,0.9 -0.4,1.4c-0.1,0.4 -0.2,0.9 -0.4,1.3c-0.1,0.2 -0.2,0.4 -0.4,0.6c-0.3,0.2 -0.6,0.3 -1,0.2c-0.4,-0.1 -0.7,-0.3 -0.9,-0.7c0,0 0,-0.1 -0.1,-0.1c0,0.1 -0.1,0.1 -0.1,0.2c-0.2,0.5 -0.2,1 -0.3,1.6c-0.1,0.4 -0.1,0.8 -0.2,1.2c-0.1,0.4 -0.2,0.8 -0.6,1.1c-0.4,0.3 -0.8,0.3 -1.3,0.1c-0.3,-0.1 -0.5,-0.3 -0.7,-0.6c-0.2,0.6 -0.3,1.3 -0.2,2c0,0.1 0.1,0.2 0.1,0.4c0.1,0.3 0.1,0.6 0.2,0.9c0,0.6 -0.2,1.2 -0.7,1.5c-0.3,0.2 -0.8,0.3 -1.2,0.1c-0.1,0 -0.1,0 -0.2,-0.1c0,0.3 0.1,0.6 0.2,0.9c0.2,0.5 0.3,1 0.3,1.5c0,0.4 0,0.9 -0.3,1.4c-0.2,0.3 -0.7,0.6 -1.2,0.6zM10.4,25.2c0,0.1 -0.1,0.2 -0.2,0.3c-0.4,0.2 -0.6,0.6 -0.5,1c0,0.1 0.2,0.3 0.3,0.4c0.1,0 0.2,0.1 0.3,0c0.2,-0.1 0.2,-0.4 0.2,-0.6c0,-0.2 -0.1,-0.5 -0.1,-0.7c0.1,-0.2 0.1,-0.3 0,-0.4zM15.8,18.2c-0.1,0.1 -0.2,0.2 -0.2,0.3c0,0.1 0,0.3 0.1,0.4c0.1,0.1 0.2,0.2 0.3,0.2c0.1,0 0.1,0 0.2,0c0,0 0,-0.1 0.1,-0.2c0.1,-0.3 0.2,-0.5 0.2,-0.8c-0.1,0 -0.1,0 -0.2,0c-0.2,0 -0.3,0 -0.5,0.1zM19.6,14.8c-0.2,0 -0.4,0.1 -0.5,0.3c-0.1,0.2 0.1,0.5 0.3,0.5c0.2,-0.3 0.3,-0.6 0.4,-0.9c0,0.2 -0.1,0.2 -0.2,0.1c0.1,0.1 0,0 0,0z" fill="#ffc107"></path><path d="M11,31.2c-0.2,0 -0.3,-0.1 -0.4,-0.2c-0.1,-0.2 -0.1,-0.5 0.2,-0.7c0.3,-0.2 0.5,-0.5 0.5,-1c0.1,-0.5 0,-0.9 -0.2,-1.4c-0.1,-0.3 -0.2,-0.7 -0.2,-1c-0.3,-1.1 -0.5,-2.2 -0.6,-3.3c-0.1,-1.2 0,-3 1,-4.4c0.2,-0.2 0.5,-0.3 0.7,-0.1c0.2,0.2 0.3,0.5 0.1,0.7c-0.9,1.2 -0.9,2.7 -0.8,3.8c0.1,1 0.3,2 0.6,3.1c0.1,0.3 0.2,0.7 0.2,1c0.1,0.6 0.2,1.2 0.2,1.8c-0.1,0.8 -0.5,1.4 -1,1.7c-0.2,0 -0.2,0 -0.3,0z" fill="#ffc107"></path></g></g></svg>